<svg xmlns="http://www.w3.org/2000/svg" width="512" height="512" viewBox="0 0 512 512"><title>PsyMAS — Test Security Analytics</title><rect width="512" height="512" rx="104" fill="#17354D"/><g transform="translate(41 41) scale(.84)"><path fill="#FFFFFF" d="M72 64 H132 Q140 64 140 72 V224 Q140 276 192 276 H218 V72 Q218 64 226 64 H286 Q294 64 294 72 V276 H320 Q372 276 372 224 V72 Q372 64 380 64 H440 Q448 64 448 72 V224 Q448 352 320 352 H294 V432 Q294 440 286 440 H226 Q218 440 218 432 V352 H192 Q64 352 64 224 V72 Q64 64 72 64 Z"/></g></svg>